<svg width="832" height="310" viewBox="0 0 832 310" fill="none" xmlns="http://www.w3.org/2000/svg">
<path opacity="0.5" fill-rule="evenodd" clip-rule="evenodd" d="M758.161 270.498H19.7646V27.6628H62.4698V50.0592L89.9337 56.0889V139.091H110.163V105.458L122.325 98.7815V64.5413H189.416V50.3279H231.79V131.3H254.546V78.754L264.748 73.1555H318.891V57.6499L330.661 51.1896H373.82V23.1941H428.748V172.647H479.753V104.596L501.333 92.7518V58.9421H524.481V80.0462H565.284V152.404H581.763V99.8588H595.887V77.893H613.936V-16H691.62V21.0402H752.042V55.4967L758.161 58.8557V270.498Z" fill="#42455A"/>
<path opacity="0.8" fill-rule="evenodd" clip-rule="evenodd" d="M732.873 80.5274L721.753 92.7486V130.229H709.893V27.5659H656.893V266.707L640.956 249.189V111.489H523.094V146.525H460.828V304.954H406.129V161.912H390.307V106.261H357.873V198.433H342.842V215.825L323.856 182.781H290.631V63.6528H226.553L221.015 69.7387V147.13H202.82V38.4351H148.235V56.6964L137.555 68.4354V253.65H125.293V104.957H118.173V90.6087H55.2815L44.6021 102.348V118.869H-14.7288L-17.8936 329.733H179.878V329.298H380.814V329.733H780.313V80.5274H732.873Z" fill="#2D2F41"/>
<path fill-rule="evenodd" clip-rule="evenodd" d="M779.987 95.8607V244.445H760.811V185.313L733.644 162.272V72.8198H699.286L679.31 55.8788H653.742V146.007H592.218V248.335H576.237V105.348L531.492 125V210.387H519.507V78.919H504.325V40.292H489.145V31.4829H482.753V38.9363H445.199V68.7535H410.042L401.253 78.919V200.899H371.29V176.164L352.513 160.239V101.96H286.994V150.074H263.023V190.734L234.258 217.841H215.881V89.0837L164.744 59.2666V178.536H152.759V96.5378H92.0335V125H64.0675V261.211H52.0826V202.254H11.3334V183.957L4.14218 175.148H-39.8035L-43 413.009H832V95.8607H779.987Z" fill="#0F1016"/>
</svg>
