<svg width="140" height="90" viewBox="0 0 140 90" fill="none" xmlns="http://www.w3.org/2000/svg">
<g clip-path="url(#clip0_377_5852)">
<path d="M19.949 17.2736C11.449 38.7736 13.324 77.0236 15.074 88.2736C16.824 99.5236 24.324 104.024 27.074 136.774C29.824 169.524 31.074 198.274 31.074 198.274C31.074 198.274 21.526 199.031 24.074 207.524C24.824 210.024 23.824 210.024 28.824 210.024C33.824 210.024 153.574 210.024 153.574 210.024C153.574 210.024 155.574 205.024 156.574 196.524C157.574 188.024 161.074 179.524 151.074 142.524C141.074 105.524 127.074 103.024 125.574 85.5236C124.074 68.0236 124.074 48.5236 115.074 21.0236C106.074 -6.47642 100.413 20.7276 98.074 28.5236C97.699 29.7736 62.509 22.8836 34.949 29.7736C34.074 30.0236 28.449 -4.22642 19.949 17.2736Z" fill="black"/>
<path d="M19.949 17.2736C11.449 38.7736 13.324 77.0236 15.074 88.2736C16.824 99.5236 24.324 104.024 27.074 136.774C29.824 169.524 31.074 198.274 31.074 198.274C31.074 198.274 21.526 199.031 24.074 207.524C24.824 210.024 23.824 210.024 28.824 210.024C33.824 210.024 153.574 210.024 153.574 210.024C153.574 210.024 155.574 205.024 156.574 196.524C157.574 188.024 161.074 179.524 151.074 142.524C141.074 105.524 127.074 103.024 125.574 85.5236C124.074 68.0236 124.074 48.5236 115.074 21.0236C106.074 -6.47642 100.413 20.7276 98.074 28.5236C97.699 29.7736 62.509 22.8836 34.949 29.7736C34.074 30.0236 28.449 -4.22642 19.949 17.2736Z" stroke="white" stroke-width="2"/>
<path d="M91.699 46.7737C100.805 46.7737 108.199 54.1673 108.199 63.2737C108.199 72.38 100.805 79.7737 91.699 79.7737C82.5926 79.7737 75.199 72.38 75.199 63.2737C75.199 54.1673 82.5926 46.7737 91.699 46.7737Z" fill="#EDEDED"/>
<path d="M91.074 44.7732C103.009 44.7732 112.699 48.61 112.699 53.3357C112.699 58.0613 103.009 61.8982 91.074 61.8982C79.1391 61.8982 69.449 58.0613 69.449 53.3357C69.449 48.61 79.1391 44.7732 91.074 44.7732Z" fill="black"/>
<path d="M91.637 54.6487C94.9139 54.6487 97.5745 58.3455 97.5745 62.8987C97.5745 67.4519 94.9139 71.1487 91.637 71.1487C88.3601 71.1487 85.6995 67.4519 85.6995 62.8987C85.6995 58.3455 88.3601 54.6487 91.637 54.6487Z" fill="black"/>
<path d="M45.699 46.7737C54.8053 46.7737 62.199 54.1673 62.199 63.2737C62.199 72.38 54.8053 79.7737 45.699 79.7737C36.5926 79.7737 29.199 72.38 29.199 63.2737C29.199 54.1673 36.5926 46.7737 45.699 46.7737Z" fill="#EDEDED"/>
<path d="M45.074 44.7732C57.0088 44.7732 66.699 48.61 66.699 53.3357C66.699 58.0613 57.0088 61.8982 45.074 61.8982C33.1391 61.8982 23.449 58.0613 23.449 53.3357C23.449 48.61 33.1391 44.7732 45.074 44.7732Z" fill="black"/>
<path d="M45.637 54.6487C48.9139 54.6487 51.5745 58.3455 51.5745 62.8987C51.5745 67.4519 48.9139 71.1487 45.637 71.1487C42.3601 71.1487 39.6995 67.4519 39.6995 62.8987C39.6995 58.3455 42.3601 54.6487 45.637 54.6487Z" fill="black"/>
</g>
<defs>
<clipPath id="clip0_377_5852">
<rect width="140" height="90" fill="white"/>
</clipPath>
</defs>
</svg>
