<svg width="24" height="24" viewBox="0 0 24 24" fill="none" xmlns="http://www.w3.org/2000/svg">
<path d="M9.03936 13.4824C7.8405 14.6812 6.1034 16.8016 4.4342 18.9442C3.55327 20.0751 4.8245 21.4121 5.97544 20.5574C6.94122 19.8403 7.78585 19.1617 8.31203 18.6356C10.2722 16.6754 11.1259 13.6087 16.1527 10.7949C19.8914 8.70205 19.2198 7.95925 19.8944 7.0776C20.002 6.93692 20.0981 6.78468 20.1457 6.61354L20.5766 5.06577C20.756 4.42131 20.2886 3.76922 19.6181 3.72861L19.3066 3.70975C19.0098 3.69177 18.7229 3.79888 18.5141 4.00763L9.03936 13.4824Z" fill="white"/>
<path d="M13.0002 15.6284C14.1991 16.8272 16.3194 18.5643 18.4621 20.2335C19.5929 21.1145 20.9299 19.8432 20.0753 18.6923C19.3581 17.7265 18.6796 16.8819 18.1534 16.3557C16.1932 14.3955 13.1266 13.5418 10.3127 8.515C8.21988 4.77634 7.47707 5.44792 6.59543 4.77333C6.45474 4.66568 6.30251 4.56965 6.13136 4.52201L4.58359 4.09113C3.93913 3.91172 3.28705 4.37917 3.24644 5.04967L3.22757 5.3611C3.2096 5.65793 3.3167 5.94487 3.52545 6.15363L13.0002 15.6284Z" fill="white"/>
</svg>
