<svg width="1422" height="575" viewBox="0 0 1422 575" fill="none" xmlns="http://www.w3.org/2000/svg">
<g clip-path="url(#clip0_2_40)">
<rect width="1440" height="575" transform="translate(-18)" fill="url(#paint0_linear_2_40)"/>
<path opacity="0.5" fill-rule="evenodd" clip-rule="evenodd" d="M1336.6 516.861H45.7248V92.3322H120.383V131.486L168.396 142.027V287.132H203.761V228.335L225.023 216.663V156.804H342.313V131.956H416.391V273.512H456.174V181.651L474.008 171.863H568.663V144.756L589.24 133.462H664.691V84.5198H760.718V345.796H849.885V226.829L887.611 206.122V147.015H928.079V183.91H999.413V310.407H1028.22V218.547H1052.91V180.145H1084.47V16H1220.28V80.7543H1325.91V140.992L1336.6 146.864V516.861Z" fill="#42455A"/>
<path opacity="0.8" fill-rule="evenodd" clip-rule="evenodd" d="M1292.39 184.75L1272.95 206.116V271.639H1252.22V92.1622H1159.56V510.233L1131.7 479.608V238.878H925.654V300.129H816.8V577.098H721.174V327.028H693.513V229.738H636.811V390.875H610.534V421.279L577.343 363.513H519.258V155.25H407.235L397.554 165.889V301.186H365.745V111.164H270.318V143.089L251.648 163.611V487.407H230.212V227.458H217.764V202.375H107.816L89.1459 222.897V251.781H-14.5775L-20.1102 620.417H325.637V619.656H676.918V620.417H1375.33V184.75H1292.39Z" fill="#2D2F41"/>
<path fill-rule="evenodd" clip-rule="evenodd" d="M1374.76 211.556V471.313H1341.24V367.938L1293.74 327.658V171.276H1233.68L1198.76 141.659H1154.06V299.224H1046.5V478.115H1018.56V228.143L940.337 262.498V411.773H919.386V181.938H892.844V114.41H866.305V99.0096H855.131V112.04H789.478V164.167H728.017L712.652 181.938V395.186H660.269V351.944L627.443 324.104V222.219H512.901V306.332H470.995V377.416L420.708 424.804H388.581V199.708L299.182 147.582V356.091H278.23V212.74H172.068V262.498H123.177V500.625H102.225V397.555H30.9867V365.568L18.4148 350.167H-58.4118L-64 766H1465.69V211.556H1374.76Z" fill="#0F1016"/>
</g>
<defs>
<linearGradient id="paint0_linear_2_40" x1="720" y1="-48.5" x2="720" y2="575" gradientUnits="userSpaceOnUse">
<stop stop-color="#212330"/>
<stop offset="1" stop-color="#6D7191"/>
</linearGradient>
<clipPath id="clip0_2_40">
<rect width="1440" height="575" fill="white" transform="translate(-18)"/>
</clipPath>
</defs>
</svg>
