<svg width="25" height="25" viewBox="0 0 25 25" fill="none" xmlns="http://www.w3.org/2000/svg">
<g clip-path="url(#clip0_450_848)">
<path d="M24.5 12.5C24.5 19.127 19.127 24.5 12.5 24.5C5.87295 24.5 0.5 19.127 0.5 12.5C0.5 5.87295 5.87295 0.5 12.5 0.5C19.1284 0.5 24.5 5.87295 24.5 12.5Z" fill="#2081E2"/>
<path d="M6.42028 12.9032L6.47205 12.8218L9.59373 7.93835C9.63936 7.86685 9.74661 7.87424 9.78112 7.95191C10.3026 9.12068 10.7526 10.5743 10.5418 11.4792C10.4518 11.8515 10.2053 12.3558 9.92784 12.8218C9.8921 12.8896 9.85264 12.9562 9.81072 13.0203C9.79099 13.0499 9.7577 13.0672 9.72194 13.0672H6.51151C6.4252 13.0672 6.37466 12.9735 6.42028 12.9032Z" fill="white"/>
<path d="M20.3346 13.8107V14.5837C20.3346 14.6281 20.3075 14.6675 20.2681 14.6848C20.0264 14.7884 19.1991 15.1681 18.8552 15.6464C17.9774 16.8682 17.3067 18.6152 15.8075 18.6152H9.55302C7.33631 18.6152 5.53998 16.8128 5.53998 14.5886V14.5171C5.53998 14.4579 5.58805 14.4099 5.64723 14.4099H9.13386C9.20288 14.4099 9.25343 14.474 9.24728 14.5418C9.22261 14.7686 9.26454 15.0004 9.37179 15.2112C9.57891 15.6317 10.008 15.8943 10.4715 15.8943H12.1976V14.5467H10.4912C10.4037 14.5467 10.352 14.4456 10.4025 14.3741C10.421 14.3457 10.442 14.3162 10.4641 14.2829C10.6256 14.0536 10.8562 13.6973 11.0855 13.2916C11.2421 13.0179 11.3937 12.7257 11.5158 12.4323C11.5405 12.3793 11.5602 12.325 11.5799 12.272C11.6132 12.1783 11.6477 12.0908 11.6724 12.0033C11.697 11.9293 11.7167 11.8516 11.7365 11.7789C11.7944 11.5298 11.8191 11.266 11.8191 10.9923C11.8191 10.885 11.8142 10.7728 11.8043 10.6656C11.7993 10.5485 11.7846 10.4313 11.7698 10.3142C11.7599 10.2106 11.7414 10.1083 11.7217 10.001C11.697 9.84447 11.6625 9.68914 11.623 9.53254L11.6095 9.47338C11.5799 9.36611 11.5552 9.26379 11.5207 9.15654C11.4233 8.81994 11.3111 8.492 11.1928 8.18502C11.1496 8.06295 11.1003 7.94583 11.051 7.82871C10.9783 7.65241 10.9043 7.49214 10.8365 7.34048C10.802 7.27143 10.7724 7.20855 10.7428 7.14445C10.7095 7.0717 10.675 6.99896 10.6404 6.92994C10.6158 6.87692 10.5874 6.8276 10.5677 6.77828L10.3569 6.38869C10.3273 6.33567 10.3766 6.27279 10.4345 6.28882L11.7537 6.64635H11.7574C11.7599 6.64635 11.7611 6.6476 11.7624 6.6476L11.9362 6.69567L12.1273 6.74994L12.1976 6.76964V5.98554C12.1976 5.60703 12.5009 5.30005 12.8757 5.30005C13.0631 5.30005 13.2332 5.37649 13.3553 5.501C13.4773 5.62554 13.5537 5.79567 13.5537 5.98554V7.14939L13.6943 7.18882C13.7054 7.19254 13.7165 7.19746 13.7264 7.20486C13.7609 7.23075 13.8102 7.26896 13.8731 7.31583C13.9224 7.35526 13.9754 7.40336 14.0395 7.45268C14.1665 7.55499 14.3181 7.68692 14.4846 7.83858C14.529 7.87678 14.5721 7.91624 14.6116 7.9557C14.8261 8.15543 15.0665 8.38967 15.2958 8.64858C15.3599 8.72132 15.4228 8.79529 15.4869 8.87295C15.551 8.95186 15.6188 9.02953 15.678 9.10722C15.7557 9.21078 15.8395 9.31803 15.9123 9.43023C15.9468 9.48325 15.9862 9.53749 16.0195 9.5905C16.1132 9.73227 16.1958 9.87901 16.2747 10.0257C16.308 10.0935 16.3425 10.1675 16.3721 10.2402C16.4597 10.4363 16.5287 10.636 16.5731 10.8357C16.5866 10.8789 16.5965 10.9257 16.6015 10.9676V10.9775C16.6162 11.0367 16.6212 11.0996 16.6261 11.1637C16.6458 11.3683 16.636 11.573 16.5916 11.7789C16.5731 11.8664 16.5484 11.949 16.5189 12.0366C16.4893 12.1204 16.4597 12.2079 16.4215 12.2905C16.3475 12.4619 16.2599 12.6333 16.1564 12.7935C16.1231 12.8527 16.0836 12.9156 16.0442 12.9748C16.001 13.0376 15.9567 13.0968 15.9172 13.1548C15.863 13.2288 15.805 13.3064 15.7458 13.3755C15.6928 13.4482 15.6386 13.521 15.5794 13.5851C15.4968 13.6825 15.4179 13.7749 15.3353 13.8637C15.286 13.9216 15.233 13.9808 15.1787 14.0338C15.1257 14.093 15.0714 14.146 15.0221 14.1953C14.9395 14.2779 14.8705 14.342 14.8125 14.3951L14.6769 14.5196C14.6572 14.5369 14.6313 14.5467 14.6042 14.5467H13.5537V15.8943H14.8754C15.1713 15.8943 15.4524 15.7895 15.6793 15.5971C15.7569 15.5293 16.096 15.2359 16.4966 14.7933C16.5102 14.7785 16.5275 14.7674 16.5472 14.7625L20.1978 13.7071C20.2656 13.6874 20.3346 13.7392 20.3346 13.8107Z" fill="white"/>
</g>
<defs>
<clipPath id="clip0_450_848">
<rect width="24" height="24" fill="white" transform="translate(0.5 0.5)"/>
</clipPath>
</defs>
</svg>
