<svg width="1440" height="248" viewBox="0 0 1440 248" fill="none" xmlns="http://www.w3.org/2000/svg">
<g clip-path="url(#clip0_2_5)">
<rect width="1440" height="248" fill="black"/>
<g opacity="0.1">
<path d="M42.6071 305.373C34.5844 305.373 30.573 297.13 30.573 280.644C30.573 270.232 26.0196 233.031 16.9127 169.04C8.02271 104.832 2.38513 69.8002 0 63.9435C2.81879 58.7374 6.61332 56.1344 11.3836 56.1344C16.3707 56.1344 21.0325 67.4142 25.3691 89.9736C29.4889 113.835 32.9582 141.166 35.777 171.969L38.0537 198.324C39.3547 213.075 40.1136 220.558 40.3304 220.775L43.5828 193.443L45.5343 176.524C48.3531 151.795 50.1962 134.333 51.0635 124.138C52.1476 110.689 52.6897 101.47 52.6897 96.4812V90.299C52.6897 87.9129 53.557 85.6352 55.2917 83.4661C57.0263 81.2969 58.9778 80.2123 61.1461 80.2123C68.952 80.2123 72.8549 83.4661 72.8549 89.9736V94.8543C72.8549 107.219 74.0475 120.559 76.4326 134.876C79.0346 148.975 82.7207 165.895 87.4909 185.634C90.5265 197.131 93.5622 211.122 96.5978 227.608C97.2483 220.45 99.3082 203.096 102.777 175.548C106.247 150.385 108.74 129.019 110.258 111.448C111.993 93.6612 112.86 77.067 112.86 61.6658C112.86 56.6767 113.619 53.206 115.137 51.2538C116.871 49.0846 120.015 48 124.569 48C127.171 48 129.448 48.8677 131.399 50.603C133.567 52.1214 134.651 54.1822 134.651 56.7852C134.651 59.1713 133.567 61.6658 131.399 64.2688C131.399 79.8869 130.206 98.2165 127.821 119.258C125.436 140.082 122.509 159.93 119.04 178.802C115.57 197.24 112.643 217.088 110.258 238.345C107.873 259.387 106.68 277.933 106.68 293.985C106.68 297.456 105.813 300.167 104.078 302.119C102.561 304.289 100.175 305.373 96.923 305.373C94.5379 305.373 91.7191 300.926 88.4667 292.033C84.3469 279.668 79.2514 255.048 73.1801 218.172L67.3257 180.103L64.3985 158.954C61.5797 178.693 59.4114 194.637 57.8936 206.784C56.5926 218.714 55.2917 232.923 53.9907 249.408C52.4729 265.243 51.714 280.861 51.714 296.263C51.714 298.432 50.7382 300.492 48.7868 302.445C47.0521 304.397 44.9922 305.373 42.6071 305.373Z" fill="white"/>
<path d="M228.368 300.818C220.996 300.818 217.309 282.922 217.309 247.131L217.635 228.584L217.96 213.617V212.641V209.387C218.177 207.652 218.285 205.591 218.285 203.205C218.285 202.771 217.96 202.229 217.309 201.578C216.659 200.927 216.334 200.385 216.334 199.951V199.626C215.25 200.059 213.298 200.276 210.479 200.276C207.661 200.276 204.191 199.843 200.071 198.975C198.77 198.758 195.301 198.216 189.664 197.348V234.766C189.664 240.406 189.989 249.3 190.639 261.447C191.29 273.378 191.615 282.271 191.615 288.128C191.615 291.382 190.748 294.202 189.013 296.588C187.278 298.974 185.002 300.167 182.183 300.167C178.063 300.167 175.136 296.154 173.401 288.128C171.667 279.885 170.799 269.148 170.799 255.916L171.45 229.56C171.667 222.185 171.775 214.376 171.775 206.133V200.602V196.046C171.775 192.576 171.667 190.298 171.45 189.214V187.587L172.426 168.715C172.426 160.472 172.1 148.216 171.45 131.947C170.799 115.678 170.474 103.423 170.474 95.1796C170.474 92.5766 171.341 90.299 173.076 88.3467C174.811 86.3945 176.979 85.4183 179.581 85.4183C186.52 85.4183 189.989 91.9259 189.989 104.941L189.338 145.288C188.905 157.435 188.688 170.992 188.688 185.96C191.94 187.044 197.795 187.587 206.251 187.587H218.285C218.719 186.285 218.936 184.984 218.936 183.682C218.936 173.27 218.285 157.869 216.984 137.479C215.466 118.39 214.708 102.88 214.708 90.9497C214.708 88.5636 215.575 86.6114 217.309 85.093C219.261 83.3576 221.538 82.49 224.14 82.49C225.657 82.49 227.826 83.0322 230.645 84.1168L233.572 85.4183C233.572 116.221 234.656 157.327 236.824 208.736L239.751 291.057C239.751 294.093 238.559 296.479 236.174 298.215C234.005 299.95 231.403 300.818 228.368 300.818Z" fill="white"/>
<path d="M316.852 307C311.215 307 306.011 305.156 301.24 301.469C296.47 297.998 292.567 293.226 289.532 287.152C283.244 273.92 279.341 259.495 277.823 243.877C275.871 229.126 274.896 214.918 274.896 201.253C274.896 198.649 275.004 196.48 275.221 194.745V188.888C275.221 187.804 275.112 187.261 274.896 187.261V181.405L275.221 158.628C275.438 151.687 276.305 140.624 277.823 125.44C278.907 115.028 281.401 104.941 285.303 95.1796C286.821 90.8413 288.773 87.5875 291.158 85.4183C293.543 83.0322 296.253 81.8392 299.289 81.8392C307.962 81.8392 315.768 83.4661 322.707 86.7198C329.645 89.7567 335.5 94.095 340.27 99.7349C344.607 105.158 348.293 111.882 351.328 119.908C354.364 127.717 356.532 136.069 357.833 144.962C359.134 154.073 359.785 163.726 359.785 173.921V176.524C359.785 183.248 359.893 189.322 360.11 194.745L360.435 213.291C360.435 275.764 345.907 307 316.852 307ZM315.551 293.334C319.454 293.334 323.032 291.816 326.284 288.779C329.537 285.525 332.03 281.187 333.765 275.764C337.885 264.701 340.378 252.771 341.246 239.972C342.33 228.91 342.872 219.365 342.872 211.339C342.872 201.578 342.113 188.78 340.595 172.945C339.294 156.242 338.644 143.769 338.644 135.526V129.67C338.21 121.427 335.391 114.268 330.187 108.195C325.2 102.121 319.021 99.0842 311.648 99.0842C304.276 99.0842 299.397 103.314 297.012 111.774C294.844 118.498 293.76 127.175 293.76 137.804C293.76 141.925 293.868 145.396 294.085 148.216V157.001L293.435 171.969C293.001 176.524 292.784 181.513 292.784 186.936C292.784 198.649 293.109 210.255 293.76 221.751C294.627 238.02 296.795 253.855 300.265 269.256C303.734 285.308 308.83 293.334 315.551 293.334Z" fill="white"/>
<path d="M412.263 301.469C407.927 301.469 404.132 300.492 400.88 298.54C397.844 296.588 396.326 293.876 396.326 290.406C401.097 285.634 403.482 272.944 403.482 252.337C403.482 239.972 402.506 221.968 400.555 198.324C398.386 175.765 397.302 157.977 397.302 144.962L397.953 127.067C398.169 121.861 398.278 115.895 398.278 109.171C398.278 103.097 397.194 95.3966 395.025 86.0691C392.423 76.3078 391.122 69.4749 391.122 65.5703C391.122 57.9782 399.47 54.1822 416.166 54.1822H421.045C432.754 54.1822 442.945 57.7613 451.618 64.9196C458.557 70.9933 464.411 79.7785 469.181 91.2751C472.434 99.0842 475.253 109.93 477.638 123.813C478.939 135.96 479.589 145.505 479.589 152.446V162.858V178.151C479.155 179.018 478.939 179.886 478.939 180.754C478.939 182.489 479.047 183.791 479.264 184.658C479.481 185.526 479.589 186.611 479.589 187.912C479.589 194.853 478.505 203.205 476.337 212.966C474.385 222.51 471.458 232.272 467.555 242.25C457.798 266.111 446.848 283.031 434.705 293.009C427.55 298.649 420.069 301.469 412.263 301.469ZM419.094 282.597C427.116 277.608 434.163 270.449 440.234 261.122C446.306 251.577 450.968 241.057 454.22 229.56C460.074 208.302 463.002 186.827 463.002 165.136C463.002 153.422 461.917 140.624 459.749 126.741C457.364 113.292 452.269 101.145 444.463 90.299C440.777 85.093 436.115 81.08 430.477 78.26C424.84 75.2232 418.443 73.7048 411.288 73.7048V74.0301C411.288 93.5528 412.589 123.054 415.191 162.533C417.793 201.795 419.094 231.513 419.094 251.686V282.597Z" fill="white"/>
<path d="M554.04 305.698C548.836 305.698 544.174 304.505 540.054 302.119C535.934 299.95 532.574 296.696 529.972 292.358C524.768 283.247 521.407 272.944 519.889 261.447C518.371 251.469 517.612 239.539 517.612 225.656C516.962 202.229 516.637 173.595 516.637 139.756L516.311 114.702C516.095 113.401 515.986 111.232 515.986 108.195C515.552 99.9518 515.336 94.9627 515.336 93.2274C517.287 88.6721 519.564 86.3945 522.166 86.3945C524.768 86.3945 527.044 88.3467 528.996 92.2513C531.164 96.1558 532.248 100.386 532.248 104.941V193.443C532.248 202.12 533.007 213.617 534.525 227.933C536.043 245.721 536.802 257.217 536.802 262.423C536.802 278.475 543.632 286.501 557.292 286.501C572.904 286.501 580.71 228.15 580.71 111.448V93.2274V90.299C580.493 89.6482 580.385 88.7806 580.385 87.696C580.385 85.093 580.927 83.2491 582.011 82.1646C583.312 80.8631 585.697 80.2123 589.166 80.2123C591.985 80.2123 594.153 81.08 595.671 82.8153C597.406 84.3337 598.49 86.1775 598.924 88.3467C599.14 89.6482 599.249 92.1428 599.249 95.8304C599.249 99.3011 598.924 104.832 598.273 112.425C597.406 118.715 596.972 124.138 596.972 128.693C596.972 133.683 596.755 138.129 596.322 142.034L595.671 155.7V158.303C595.888 159.17 595.996 160.147 595.996 161.231C595.996 257.543 582.011 305.698 554.04 305.698Z" fill="white"/>
<path d="M725.551 301.794C722.949 301.794 720.997 301.143 719.696 299.842C718.395 298.323 717.42 295.829 716.769 292.358L714.818 286.176V285.525V284.549C714.818 277.391 707.337 252.987 692.376 211.339C677.631 169.691 666.031 138.889 657.574 118.932V282.597L658.875 284.874C659.092 285.308 659.526 286.067 660.176 287.152C660.827 288.237 661.152 289.321 661.152 290.406C661.152 293.226 660.176 295.612 658.225 297.564C656.273 299.516 653.888 300.492 651.07 300.492C644.131 300.492 640.662 293.876 640.662 280.644L640.336 225.005C640.12 208.302 640.011 189.647 640.011 169.04C640.011 162.099 640.336 152.012 640.987 138.78C641.637 125.114 641.963 115.028 641.963 108.52C641.963 98.325 645.866 90.299 653.672 84.4422V86.3945C654.972 85.9606 655.84 85.7437 656.273 85.7437C661.261 85.7437 667.549 94.4204 675.138 111.774C681.209 125.657 686.63 140.299 691.4 155.7C696.387 171.101 702.892 193.01 710.915 221.426L714.167 233.139C719.154 250.71 722.949 263.291 725.551 270.883C729.887 224.246 732.056 169.149 732.056 105.592V101.362C731.839 100.06 731.73 98.6503 731.73 97.1319C731.73 90.6244 734.332 87.3706 739.536 87.3706C742.572 87.3706 744.849 88.5636 746.366 90.9497C748.101 93.3358 748.968 96.3727 748.968 100.06V124.464C748.535 157.869 747.234 194.094 745.065 233.139C742.897 272.185 740.295 294.202 737.259 299.191C730.971 300.926 727.068 301.794 725.551 301.794Z" fill="white"/>
<path d="M812.559 300.492C793.911 300.492 784.588 297.239 784.588 290.731C784.588 285.525 787.84 282.922 794.345 282.922H798.248C799.115 283.139 800.091 283.247 801.175 283.247C802.91 283.247 804.102 282.705 804.753 281.621C805.62 280.536 806.054 278.584 806.054 275.764C806.054 257.326 804.97 232.163 802.801 200.276C800.85 167.088 799.874 142.034 799.874 125.114C799.874 119.041 799.983 113.509 800.2 108.52L800.525 91.9259C800.525 84.7676 800.2 78.8023 799.549 74.0301C797.164 74.8978 794.67 75.3317 792.068 75.3317C787.081 75.3317 784.588 72.7286 784.588 67.5226C784.588 64.9196 786.106 62.642 789.141 60.6897C792.394 58.7374 796.513 57.3275 801.5 56.4598C810.607 54.9414 818.305 54.1822 824.593 54.1822C827.195 54.1822 829.363 55.0498 831.098 56.7852C833.049 58.5205 834.025 60.5812 834.025 62.9673C834.025 65.3534 833.266 67.4141 831.748 69.1495C830.447 70.8848 828.713 71.7525 826.544 71.7525C825.243 71.7525 824.159 71.644 823.292 71.4271H820.69C818.522 71.4271 816.895 71.9694 815.811 73.054C814.944 73.9217 814.51 75.657 814.51 78.26C814.51 101.253 815.92 132.923 818.738 173.27C821.34 215.569 822.641 247.348 822.641 268.606V280.97C824.159 280.753 826.328 280.644 829.146 280.644C838.253 280.644 842.807 284.441 842.807 292.033V293.985L834.675 299.516C834.459 299.516 833.808 299.625 832.724 299.842C831.64 299.842 829.472 299.842 826.219 299.842C818.847 300.276 814.294 300.492 812.559 300.492Z" fill="white"/>
<path d="M894.142 295.612L893.817 282.922C893.6 279.234 893.492 275.113 893.492 270.558L893.817 259.495C893.166 257.109 891.54 233.356 888.938 188.237C886.336 143.119 884.818 114.16 884.385 101.362C871.808 100.928 863.786 99.6265 860.316 97.4573C857.931 95.7219 856.739 93.7697 856.739 91.6005C856.739 89.8652 857.823 88.3467 859.991 87.0452C862.376 85.5268 864.762 84.7676 867.147 84.7676C873.218 84.7676 880.59 85.2014 889.263 86.0691C897.503 87.1537 904.875 87.696 911.38 87.696H913.982H916.584C923.306 87.696 926.667 90.299 926.667 95.505C926.667 98.108 925.582 100.277 923.414 102.013C921.246 103.531 918.752 104.29 915.933 104.29C913.982 104.29 911.163 103.965 907.477 103.314L900.972 102.013L900.647 103.639L900.322 105.266C900.322 124.572 902.165 155.374 905.851 197.673C909.32 237.369 911.055 268.172 911.055 290.08C911.055 292.683 909.862 294.961 907.477 296.913C905.309 298.866 902.815 299.842 899.996 299.842L894.142 295.612Z" fill="white"/>
<path d="M1063.1 306.024C1057.03 306.024 1051.39 304.614 1046.19 301.794C1041.2 298.974 1036.86 295.178 1033.18 290.406C1029.92 285.85 1027 280.102 1024.4 273.161C1021.79 266.003 1019.84 258.627 1018.54 251.035C1015.94 238.237 1014.2 221.426 1013.34 200.602C1013.12 195.613 1013.01 187.044 1013.01 174.897V154.398C1013.23 148.541 1013.34 142.468 1013.34 136.177C1013.34 123.379 1014.1 113.292 1015.61 105.917C1014.96 102.663 1014.64 99.3011 1014.64 95.8304C1014.64 82.8153 1019.52 72.2948 1029.27 64.2688C1039.03 56.2429 1051.39 52.2299 1066.35 52.2299C1071.99 52.2299 1077.19 53.7483 1081.96 56.7852C1086.73 59.822 1089.12 63.6181 1089.12 68.1734C1089.12 70.3425 1088.25 72.0779 1086.52 73.3794C1084.78 74.6809 1082.61 75.3317 1080.01 75.3317C1077.84 75.3317 1075.46 75.0063 1072.86 74.3555C1070.47 73.7048 1068.95 72.7286 1068.3 71.4271H1064.07V70.7764C1056.05 70.7764 1049.33 72.5117 1043.91 75.9824C1040.01 78.8023 1036.97 83.4661 1034.8 89.9736C1033.94 92.3597 1033.29 95.3966 1032.85 99.0842C1032.42 102.772 1032.2 106.134 1032.2 109.171C1031.98 110.906 1031.88 114.377 1031.88 119.583L1032.53 130.971L1032.85 142.034C1032.85 145.288 1032.42 149.084 1031.55 153.422C1030.47 158.845 1029.92 162.641 1029.92 164.81V172.619C1029.92 181.079 1030.25 192.684 1030.9 207.435C1031.12 219.799 1032.53 232.163 1035.13 244.528C1037.08 256.024 1040.77 265.786 1046.19 273.812C1051.39 282.054 1058.44 286.176 1067.33 286.176C1071.01 286.176 1075.57 284.224 1080.99 280.319C1086.84 276.415 1090.96 274.462 1093.35 274.462C1096.38 274.462 1099.53 276.089 1102.78 279.343C1102.78 287.369 1099.74 293.551 1093.67 297.889C1088.03 301.794 1081.31 304.289 1073.51 305.373C1069.17 305.807 1065.7 306.024 1063.1 306.024Z" fill="white"/>
<path d="M1192.19 303.746C1187.21 303.746 1183.52 302.987 1181.14 301.469C1178.75 299.95 1177.56 297.13 1177.56 293.009C1177.56 286.501 1176.47 275.438 1174.31 259.82L1173 252.987L1140.8 248.107C1139.5 253.096 1137.66 263.183 1135.28 278.367C1133.97 288.996 1131.91 296.046 1129.1 299.516C1127.58 301.469 1125.41 302.445 1122.59 302.445C1119.99 302.445 1117.6 301.686 1115.44 300.167C1113.27 298.432 1112.18 296.371 1112.18 293.985L1112.83 292.358L1113.16 291.057C1127.47 235.309 1138.31 180.32 1145.68 126.09C1145.68 125.223 1145.79 123.813 1146.01 121.861C1146.23 119.691 1146.44 116.655 1146.66 112.75C1147.31 104.724 1147.96 98.325 1148.61 93.5528C1149.48 88.7806 1150.78 85.2014 1152.51 82.8153H1163.57C1166.61 82.8153 1169.21 83.5745 1171.38 85.093C1173.55 86.3945 1174.63 88.3467 1174.63 90.9497C1174.63 107.436 1176.91 131.947 1181.46 164.485C1185.8 197.89 1187.97 221.317 1187.97 234.766C1187.97 236.068 1188.51 239.43 1189.59 244.853C1190.68 249.842 1191.22 253.096 1191.22 254.614C1191.22 256.133 1192.3 262.64 1194.47 274.137C1196.42 284.549 1197.4 291.273 1197.4 294.31V294.636C1197.4 299.408 1195.66 302.445 1192.19 303.746ZM1170.73 241.274C1170.08 238.02 1169.75 234.007 1169.75 229.235C1169.75 209.712 1168.02 184.767 1164.55 154.398L1161.3 120.559C1151.97 171.535 1145.58 210.038 1142.11 236.068C1145.36 238.237 1154.9 239.972 1170.73 241.274Z" fill="white"/>
<path d="M1243.53 295.612L1243.2 282.922C1242.98 279.234 1242.88 275.113 1242.88 270.558L1243.2 259.495C1242.55 257.109 1240.92 233.356 1238.32 188.237C1235.72 143.119 1234.2 114.16 1233.77 101.362C1221.19 100.928 1213.17 99.6265 1209.7 97.4573C1207.32 95.7219 1206.12 93.7697 1206.12 91.6005C1206.12 89.8652 1207.21 88.3467 1209.38 87.0452C1211.76 85.5268 1214.15 84.7676 1216.53 84.7676C1222.6 84.7676 1229.97 85.2014 1238.65 86.0691C1246.89 87.1537 1254.26 87.696 1260.76 87.696H1263.37H1265.97C1272.69 87.696 1276.05 90.299 1276.05 95.505C1276.05 98.108 1274.97 100.277 1272.8 102.013C1270.63 103.531 1268.14 104.29 1265.32 104.29C1263.37 104.29 1260.55 103.965 1256.86 103.314L1250.36 102.013L1250.03 103.639L1249.71 105.266C1249.71 124.572 1251.55 155.374 1255.24 197.673C1258.7 237.369 1260.44 268.172 1260.44 290.08C1260.44 292.683 1259.25 294.961 1256.86 296.913C1254.69 298.866 1252.2 299.842 1249.38 299.842L1243.53 295.612Z" fill="white"/>
<path d="M1314.38 305.373C1310.48 304.722 1307.12 303.312 1304.3 301.143C1301.7 298.974 1300.18 296.154 1299.75 292.683L1303.33 287.152C1304.63 287.152 1306.69 287.586 1309.51 288.454C1312.76 289.104 1315.25 289.43 1316.99 289.43C1320.89 289.43 1324.36 287.694 1327.39 284.224C1330.65 280.753 1333.03 276.198 1334.55 270.558C1337.37 260.146 1338.78 250.818 1338.78 242.575C1338.78 228.259 1334.22 213.183 1325.12 197.348L1321.54 191.166C1317.42 184.008 1313.95 177.608 1311.13 171.969C1308.31 166.329 1305.93 160.255 1303.98 153.747C1301.37 145.288 1300.07 136.828 1300.07 128.368C1300.07 118.824 1302.24 108.845 1306.58 98.4334C1308.75 93.4443 1311.78 89.4313 1315.69 86.3945C1319.8 83.1407 1324.36 81.5138 1329.35 81.5138C1333.25 81.5138 1336.83 82.8153 1340.08 85.4183C1343.55 87.8044 1345.28 90.7328 1345.28 94.2035C1345.28 96.1558 1344.52 97.6742 1343.01 98.7588C1341.49 99.8434 1339.64 100.386 1337.48 100.386C1335.09 100.386 1332.81 99.7349 1330.65 98.4334C1325.88 98.6503 1322.08 102.88 1319.26 111.123C1316.88 118.715 1315.69 125.006 1315.69 129.995C1315.69 136.286 1316.66 142.685 1318.61 149.192C1320.56 155.483 1323.06 161.231 1326.09 166.437L1333.25 179.452L1344.63 200.927C1347.67 207.001 1350.05 214.051 1351.79 222.077C1353.74 230.103 1354.71 238.237 1354.71 246.48C1354.71 259.712 1351.68 272.293 1345.61 284.224C1342.57 290.297 1338.24 295.178 1332.6 298.866C1327.18 302.553 1321.11 304.397 1314.38 304.397V305.373Z" fill="white"/>
<path d="M1410.35 265.352C1406.02 265.352 1403.42 262.966 1402.55 258.193C1402.55 244.961 1403.52 230.536 1405.48 214.918C1407.64 199.3 1410.68 180.32 1414.58 157.977L1416.21 148.541C1419.24 129.67 1420.76 113.835 1420.76 101.036C1420.76 80.8631 1417.51 70.7764 1411 70.7764C1406.89 70.7764 1404.83 75.657 1404.83 85.4183C1404.83 87.8044 1405.58 93.6612 1407.1 102.989C1407.1 103.206 1406.56 103.856 1405.48 104.941C1401.79 108.195 1399.08 109.822 1397.34 109.822C1391.27 109.822 1388.24 102.555 1388.24 88.0213V84.7676C1388.24 79.1277 1388.78 74.3555 1389.86 70.451C1391.16 66.3296 1393.44 62.7504 1396.69 59.7136C1400.38 56.6767 1404.93 55.1583 1410.35 55.1583C1415.12 55.1583 1419.24 56.026 1422.71 57.7613C1426.18 59.4966 1429 61.8827 1431.17 64.9196C1434.64 70.1256 1436.81 77.8262 1437.67 88.0213C1437.89 90.4075 1438 94.6374 1438 100.711C1438 119.8 1434.75 140.624 1428.24 163.183C1425.42 172.511 1423.04 184.333 1421.09 198.65C1419.14 212.749 1418.16 227.391 1418.16 242.575C1418.16 254.506 1418.27 261.773 1418.49 264.376C1414.58 264.376 1412.41 264.593 1411.98 265.026C1411.55 265.243 1411 265.352 1410.35 265.352ZM1410.35 302.119C1407.1 302.119 1404.5 300.818 1402.55 298.215C1400.16 296.046 1398.97 293.334 1398.97 290.08C1398.97 287.044 1400.27 284.224 1402.87 281.621C1405.48 278.801 1408.4 277.391 1411.66 277.391C1414.26 277.391 1416.86 278.801 1419.46 281.621C1422.06 284.441 1423.36 287.152 1423.36 289.755C1423.36 297.998 1419.03 302.119 1410.35 302.119Z" fill="white"/>
</g>
</g>
<defs>
<clipPath id="clip0_2_5">
<rect width="1440" height="248" fill="white"/>
</clipPath>
</defs>
</svg>
