<svg width="1438" height="200" viewBox="0 0 1438 200" fill="none" xmlns="http://www.w3.org/2000/svg">
<g opacity="0.1">
<path d="M42.6071 257.373C34.5844 257.373 30.573 249.13 30.573 232.644C30.573 222.232 26.0196 185.031 16.9127 121.04C8.02271 56.8325 2.38513 21.8002 0 15.9435C2.81879 10.7374 6.61332 8.13442 11.3836 8.13442C16.3707 8.13442 21.0325 19.4142 25.3691 41.9736C29.4889 65.8346 32.9582 93.1662 35.777 123.969L38.0537 150.324C39.3547 165.075 40.1136 172.558 40.3304 172.775L43.5828 145.443L45.5343 128.524C48.3531 103.795 50.1962 86.3333 51.0635 76.1382C52.1476 62.6893 52.6897 53.4703 52.6897 48.4812V42.299C52.6897 39.9129 53.557 37.6352 55.2917 35.4661C57.0263 33.2969 58.9778 32.2123 61.1461 32.2123C68.952 32.2123 72.8549 35.4661 72.8549 41.9736V46.8543C72.8549 59.2186 74.0475 72.559 76.4326 86.8756C79.0346 100.975 82.7207 117.895 87.4909 137.634C90.5265 149.131 93.5622 163.122 96.5978 179.608C97.2483 172.45 99.3082 155.096 102.777 127.548C106.247 102.385 108.74 81.0188 110.258 63.4485C111.993 45.6612 112.86 29.067 112.86 13.6658C112.86 8.67672 113.619 5.20603 115.137 3.25377C116.871 1.08459 120.015 0 124.569 0C127.171 0 129.448 0.86767 131.399 2.603C133.567 4.12144 134.651 6.18215 134.651 8.78516C134.651 11.1713 133.567 13.6658 131.399 16.2688C131.399 31.8869 130.206 50.2165 127.821 71.2575C125.436 92.0817 122.509 111.93 119.04 130.802C115.57 149.24 112.643 169.088 110.258 190.345C107.873 211.387 106.68 229.933 106.68 245.985C106.68 249.456 105.813 252.167 104.078 254.119C102.561 256.289 100.175 257.373 96.923 257.373C94.5379 257.373 91.7191 252.926 88.4667 244.033C84.3469 231.668 79.2514 207.048 73.1801 170.172L67.3257 132.103L64.3985 110.954C61.5797 130.693 59.4114 146.637 57.8936 158.784C56.5926 170.714 55.2917 184.923 53.9907 201.408C52.4729 217.243 51.714 232.861 51.714 248.263C51.714 250.432 50.7382 252.492 48.7868 254.445C47.0521 256.397 44.9922 257.373 42.6071 257.373Z" fill="white"/>
<path d="M228.368 252.818C220.996 252.818 217.309 234.922 217.309 199.131L217.635 180.584L217.96 165.617V164.641V161.387C218.177 159.652 218.285 157.591 218.285 155.205C218.285 154.771 217.96 154.229 217.309 153.578C216.659 152.927 216.334 152.385 216.334 151.951V151.626C215.25 152.059 213.298 152.276 210.479 152.276C207.661 152.276 204.191 151.843 200.071 150.975C198.77 150.758 195.301 150.216 189.664 149.348V186.766C189.664 192.406 189.989 201.3 190.639 213.447C191.29 225.378 191.615 234.271 191.615 240.128C191.615 243.382 190.748 246.202 189.013 248.588C187.278 250.974 185.002 252.167 182.183 252.167C178.063 252.167 175.136 248.154 173.401 240.128C171.667 231.885 170.799 221.148 170.799 207.916L171.45 181.56C171.667 174.185 171.775 166.376 171.775 158.133V152.602V148.046C171.775 144.576 171.667 142.298 171.45 141.214V139.587L172.426 120.715C172.426 112.472 172.1 100.216 171.45 83.9472C170.799 67.6784 170.474 55.4225 170.474 47.1796C170.474 44.5766 171.341 42.299 173.076 40.3467C174.811 38.3945 176.979 37.4183 179.581 37.4183C186.52 37.4183 189.989 43.9259 189.989 56.9409L189.338 97.2877C188.905 109.435 188.688 122.992 188.688 137.96C191.94 139.044 197.795 139.587 206.251 139.587H218.285C218.719 138.285 218.936 136.984 218.936 135.682C218.936 125.27 218.285 109.869 216.984 89.4786C215.466 70.3899 214.708 54.8802 214.708 42.9497C214.708 40.5636 215.575 38.6114 217.309 37.093C219.261 35.3576 221.538 34.49 224.14 34.49C225.657 34.49 227.826 35.0322 230.645 36.1168L233.572 37.4183C233.572 68.2207 234.656 109.327 236.824 160.736L239.751 243.057C239.751 246.093 238.559 248.479 236.174 250.215C234.005 251.95 231.403 252.818 228.368 252.818Z" fill="white"/>
<path d="M316.852 259C311.215 259 306.011 257.156 301.24 253.469C296.47 249.998 292.567 245.226 289.532 239.152C283.244 225.92 279.341 211.495 277.823 195.877C275.871 181.126 274.896 166.918 274.896 153.253C274.896 150.649 275.004 148.48 275.221 146.745V140.888C275.221 139.804 275.112 139.261 274.896 139.261V133.405L275.221 110.628C275.438 103.687 276.305 92.6239 277.823 77.4397C278.907 67.0276 281.401 56.941 285.303 47.1796C286.821 42.8413 288.773 39.5875 291.158 37.4183C293.543 35.0322 296.253 33.8392 299.289 33.8392C307.962 33.8392 315.768 35.4661 322.707 38.7198C329.645 41.7567 335.5 46.095 340.27 51.7349C344.606 57.1579 348.293 63.8823 351.328 71.9083C354.364 79.7173 356.532 88.0687 357.833 96.9623C359.134 106.073 359.785 115.726 359.785 125.921V128.524C359.785 135.248 359.893 141.322 360.11 146.745L360.435 165.291C360.435 227.764 345.907 259 316.852 259ZM315.551 245.334C319.454 245.334 323.032 243.816 326.284 240.779C329.537 237.525 332.03 233.187 333.765 227.764C337.885 216.701 340.378 204.771 341.246 191.972C342.33 180.91 342.872 171.365 342.872 163.339C342.872 153.578 342.113 140.78 340.595 124.945C339.294 108.242 338.644 95.7693 338.644 87.5264V81.6696C338.21 73.4267 335.391 66.2684 330.187 60.1947C325.2 54.121 319.021 51.0842 311.648 51.0842C304.276 51.0842 299.397 55.3141 297.012 63.7739C294.844 70.4983 293.76 79.175 293.76 89.804C293.76 93.9254 293.868 97.3961 294.085 100.216V109.001L293.435 123.969C293.001 128.524 292.784 133.513 292.784 138.936C292.784 150.649 293.109 162.255 293.76 173.751C294.627 190.02 296.795 205.855 300.265 221.256C303.734 237.308 308.83 245.334 315.551 245.334Z" fill="white"/>
<path d="M412.263 253.469C407.927 253.469 404.132 252.492 400.88 250.54C397.844 248.588 396.326 245.876 396.326 242.406C401.097 237.634 403.482 224.944 403.482 204.337C403.482 191.972 402.506 173.968 400.555 150.324C398.386 127.765 397.302 109.977 397.302 96.9623L397.953 79.0666C398.169 73.8605 398.278 67.8953 398.278 61.1708C398.278 55.0971 397.194 47.3966 395.025 38.0691C392.423 28.3078 391.122 21.4749 391.122 17.5703C391.122 9.97822 399.47 6.18216 416.166 6.18216H421.045C432.754 6.18216 442.945 9.7613 451.618 16.9196C458.557 22.9933 464.411 31.7785 469.181 43.2751C472.434 51.0842 475.253 61.9301 477.638 75.8128C478.939 87.9602 479.589 97.5046 479.589 104.446V114.858V130.151C479.155 131.018 478.939 131.886 478.939 132.754C478.939 134.489 479.047 135.791 479.264 136.658C479.481 137.526 479.589 138.611 479.589 139.912C479.589 146.853 478.505 155.205 476.337 164.966C474.385 174.51 471.458 184.272 467.555 194.25C457.798 218.111 446.848 235.031 434.705 245.009C427.55 250.649 420.069 253.469 412.263 253.469ZM419.094 234.597C427.116 229.608 434.163 222.449 440.234 213.122C446.306 203.577 450.968 193.057 454.22 181.56C460.074 160.302 463.002 138.827 463.002 117.136C463.002 105.422 461.917 92.624 459.749 78.7412C457.364 65.2923 452.269 53.1449 444.463 42.299C440.777 37.093 436.115 33.08 430.477 30.2601C424.84 27.2232 418.443 25.7048 411.288 25.7048V26.0301C411.288 45.5528 412.589 75.0536 415.191 114.533C417.793 153.795 419.094 183.513 419.094 203.686V234.597Z" fill="white"/>
<path d="M554.04 257.698C548.836 257.698 544.174 256.505 540.054 254.119C535.934 251.95 532.574 248.696 529.972 244.358C524.768 235.247 521.407 224.944 519.889 213.447C518.371 203.469 517.612 191.539 517.612 177.656C516.962 154.229 516.637 125.595 516.637 91.7563L516.311 66.7023C516.095 65.4008 515.986 63.2316 515.986 60.1947C515.552 51.9518 515.336 46.9627 515.336 45.2274C517.287 40.6721 519.564 38.3945 522.166 38.3945C524.768 38.3945 527.044 40.3467 528.996 44.2513C531.164 48.1558 532.248 52.3857 532.248 56.9409V145.443C532.248 154.12 533.007 165.617 534.525 179.933C536.043 197.721 536.802 209.217 536.802 214.423C536.802 230.475 543.632 238.501 557.292 238.501C572.904 238.501 580.71 180.15 580.71 63.4485V45.2274V42.299C580.493 41.6482 580.385 40.7806 580.385 39.696C580.385 37.093 580.927 35.2491 582.011 34.1646C583.312 32.8631 585.697 32.2123 589.166 32.2123C591.985 32.2123 594.153 33.08 595.671 34.8153C597.406 36.3337 598.49 38.1775 598.924 40.3467C599.14 41.6482 599.249 44.1428 599.249 47.8304C599.249 51.3011 598.924 56.8325 598.273 64.4246C597.406 70.7152 596.972 76.1382 596.972 80.6935C596.972 85.6826 596.755 90.1294 596.322 94.0339L595.671 107.7V110.303C595.888 111.17 595.996 112.147 595.996 113.231C595.996 209.543 582.011 257.698 554.04 257.698Z" fill="white"/>
<path d="M725.551 253.794C722.949 253.794 720.997 253.143 719.696 251.842C718.395 250.323 717.42 247.829 716.769 244.358L714.818 238.176V237.525V236.549C714.818 229.391 707.337 204.987 692.376 163.339C677.631 121.691 666.031 90.8886 657.574 70.9322V234.597L658.875 236.874C659.092 237.308 659.526 238.067 660.176 239.152C660.827 240.237 661.152 241.321 661.152 242.406C661.152 245.226 660.176 247.612 658.225 249.564C656.273 251.516 653.888 252.492 651.07 252.492C644.131 252.492 640.662 245.876 640.662 232.644L640.336 177.005C640.12 160.302 640.011 141.647 640.011 121.04C640.011 114.099 640.336 104.012 640.987 90.7802C641.637 77.1143 641.963 67.0276 641.963 60.5201C641.963 50.325 645.866 42.299 653.672 36.4422V38.3945C654.972 37.9606 655.84 37.7437 656.273 37.7437C661.261 37.7437 667.549 46.4204 675.138 63.7739C681.209 77.6566 686.63 92.2986 691.4 107.7C696.387 123.101 702.892 145.01 710.915 173.426L714.167 185.139C719.154 202.71 722.949 215.291 725.551 222.883C729.887 176.246 732.056 121.149 732.056 57.5917V53.3618C731.839 52.0603 731.73 50.6503 731.73 49.1319C731.73 42.6244 734.332 39.3706 739.536 39.3706C742.572 39.3706 744.849 40.5636 746.366 42.9497C748.101 45.3358 748.968 48.3727 748.968 52.0603V76.4636C748.535 109.869 747.234 146.094 745.065 185.139C742.897 224.185 740.295 246.202 737.259 251.191C730.971 252.926 727.068 253.794 725.551 253.794Z" fill="white"/>
<path d="M812.559 252.492C793.911 252.492 784.588 249.239 784.588 242.731C784.588 237.525 787.84 234.922 794.345 234.922H798.248C799.115 235.139 800.091 235.247 801.175 235.247C802.91 235.247 804.103 234.705 804.753 233.621C805.62 232.536 806.054 230.584 806.054 227.764C806.054 209.326 804.97 184.163 802.801 152.276C800.85 119.088 799.874 94.0339 799.874 77.1143C799.874 71.0406 799.983 65.5092 800.199 60.5201L800.525 43.9259C800.525 36.7676 800.2 30.8023 799.549 26.0301C797.164 26.8978 794.67 27.3317 792.068 27.3317C787.081 27.3317 784.588 24.7286 784.588 19.5226C784.588 16.9196 786.106 14.642 789.141 12.6897C792.394 10.7374 796.513 9.32746 801.5 8.45979C810.607 6.94137 818.305 6.18216 824.593 6.18216C827.195 6.18216 829.363 7.04983 831.098 8.78516C833.049 10.5205 834.025 12.5812 834.025 14.9673C834.025 17.3534 833.266 19.4141 831.748 21.1495C830.447 22.8848 828.713 23.7525 826.544 23.7525C825.243 23.7525 824.159 23.644 823.292 23.4271H820.69C818.522 23.4271 816.895 23.9694 815.811 25.054C814.944 25.9217 814.51 27.657 814.51 30.2601C814.51 53.2534 815.92 84.9234 818.738 125.27C821.34 167.569 822.641 199.348 822.641 220.606V232.97C824.159 232.753 826.328 232.644 829.146 232.644C838.253 232.644 842.807 236.441 842.807 244.033V245.985L834.676 251.516C834.459 251.516 833.808 251.625 832.724 251.842C831.64 251.842 829.472 251.842 826.219 251.842C818.847 252.276 814.293 252.492 812.559 252.492Z" fill="white"/>
<path d="M894.142 247.612L893.817 234.922C893.6 231.234 893.492 227.113 893.492 222.558L893.817 211.495C893.166 209.109 891.54 185.356 888.938 140.237C886.336 95.1185 884.818 66.16 884.385 53.3618C871.808 52.928 863.786 51.6265 860.316 49.4573C857.931 47.7219 856.739 45.7697 856.739 43.6005C856.739 41.8652 857.823 40.3467 859.991 39.0452C862.376 37.5268 864.762 36.7676 867.147 36.7676C873.218 36.7676 880.59 37.2014 889.263 38.0691C897.503 39.1537 904.875 39.696 911.38 39.696H913.982H916.584C923.306 39.696 926.667 42.299 926.667 47.505C926.667 50.108 925.582 52.2772 923.414 54.0126C921.246 55.531 918.752 56.2902 915.933 56.2902C913.982 56.2902 911.163 55.9648 907.477 55.3141L900.972 54.0126L900.647 55.6394L900.322 57.2663C900.322 76.572 902.165 107.374 905.851 149.673C909.32 189.369 911.055 220.172 911.055 242.08C911.055 244.683 909.862 246.961 907.477 248.913C905.309 250.866 902.815 251.842 899.996 251.842L894.142 247.612Z" fill="white"/>
<path d="M1063.1 258.024C1057.03 258.024 1051.39 256.614 1046.19 253.794C1041.2 250.974 1036.86 247.178 1033.18 242.406C1029.92 237.851 1027 232.102 1024.4 225.161C1021.79 218.003 1019.84 210.627 1018.54 203.035C1015.94 190.237 1014.2 173.426 1013.34 152.602C1013.12 147.613 1013.01 139.044 1013.01 126.897V106.398C1013.23 100.541 1013.34 94.4677 1013.34 88.1771C1013.34 75.379 1014.1 65.2923 1015.61 57.9171C1014.96 54.6633 1014.64 51.3011 1014.64 47.8304C1014.64 34.8153 1019.52 24.2948 1029.27 16.2688C1039.03 8.24287 1051.39 4.22989 1066.35 4.22989C1071.99 4.22989 1077.19 5.74831 1081.96 8.78516C1086.73 11.822 1089.12 15.6181 1089.12 20.1734C1089.12 22.3425 1088.25 24.0779 1086.52 25.3794C1084.78 26.6809 1082.61 27.3317 1080.01 27.3317C1077.84 27.3317 1075.46 27.0063 1072.86 26.3555C1070.47 25.7048 1068.95 24.7286 1068.3 23.4271H1064.07V22.7764C1056.05 22.7764 1049.33 24.5117 1043.91 27.9824C1040.01 30.8023 1036.97 35.4661 1034.8 41.9736C1033.94 44.3597 1033.29 47.3966 1032.85 51.0842C1032.42 54.7718 1032.2 58.134 1032.2 61.1708C1031.98 62.9062 1031.88 66.3769 1031.88 71.5829L1032.53 82.9711L1032.85 94.0339C1032.85 97.2877 1032.42 101.084 1031.55 105.422C1030.47 110.845 1029.92 114.641 1029.92 116.81V124.619C1029.92 133.079 1030.25 144.684 1030.9 159.435C1031.12 171.799 1032.53 184.163 1035.13 196.528C1037.08 208.024 1040.77 217.786 1046.19 225.812C1051.39 234.054 1058.44 238.176 1067.33 238.176C1071.01 238.176 1075.57 236.224 1080.99 232.319C1086.84 228.415 1090.96 226.462 1093.35 226.462C1096.38 226.462 1099.53 228.089 1102.78 231.343C1102.78 239.369 1099.74 245.551 1093.67 249.889C1088.03 253.794 1081.31 256.289 1073.51 257.373C1069.17 257.807 1065.7 258.024 1063.1 258.024Z" fill="white"/>
<path d="M1192.19 255.746C1187.21 255.746 1183.52 254.987 1181.14 253.469C1178.75 251.95 1177.56 249.13 1177.56 245.009C1177.56 238.501 1176.47 227.438 1174.31 211.82L1173 204.987L1140.8 200.107C1139.5 205.096 1137.66 215.183 1135.28 230.367C1133.97 240.996 1131.91 248.046 1129.1 251.516C1127.58 253.469 1125.41 254.445 1122.59 254.445C1119.99 254.445 1117.6 253.686 1115.44 252.167C1113.27 250.432 1112.18 248.371 1112.18 245.985L1112.83 244.358L1113.16 243.057C1127.47 187.309 1138.31 132.32 1145.68 78.0905C1145.68 77.2228 1145.79 75.8128 1146.01 73.8605C1146.23 71.6914 1146.44 68.6545 1146.66 64.75C1147.31 56.724 1147.96 50.325 1148.61 45.5528C1149.48 40.7806 1150.78 37.2014 1152.51 34.8153H1163.57C1166.61 34.8153 1169.21 35.5745 1171.38 37.093C1173.55 38.3945 1174.63 40.3467 1174.63 42.9497C1174.63 59.4355 1176.91 83.9472 1181.46 116.485C1185.8 149.89 1187.97 173.317 1187.97 186.766C1187.97 188.068 1188.51 191.43 1189.59 196.853C1190.68 201.842 1191.22 205.096 1191.22 206.614C1191.22 208.133 1192.3 214.64 1194.47 226.137C1196.42 236.549 1197.4 243.273 1197.4 246.31V246.636C1197.4 251.408 1195.66 254.445 1192.19 255.746ZM1170.73 193.274C1170.08 190.02 1169.75 186.007 1169.75 181.235C1169.75 161.712 1168.02 136.767 1164.55 106.398L1161.3 72.559C1151.97 123.535 1145.58 162.038 1142.11 188.068C1145.36 190.237 1154.9 191.972 1170.73 193.274Z" fill="white"/>
<path d="M1243.53 247.612L1243.2 234.922C1242.98 231.234 1242.88 227.113 1242.88 222.558L1243.2 211.495C1242.55 209.109 1240.92 185.356 1238.32 140.237C1235.72 95.1185 1234.2 66.16 1233.77 53.3618C1221.19 52.928 1213.17 51.6265 1209.7 49.4573C1207.32 47.7219 1206.12 45.7697 1206.12 43.6005C1206.12 41.8652 1207.21 40.3467 1209.38 39.0452C1211.76 37.5268 1214.15 36.7676 1216.53 36.7676C1222.6 36.7676 1229.97 37.2014 1238.65 38.0691C1246.89 39.1537 1254.26 39.696 1260.76 39.696H1263.37H1265.97C1272.69 39.696 1276.05 42.299 1276.05 47.505C1276.05 50.108 1274.97 52.2772 1272.8 54.0126C1270.63 55.531 1268.14 56.2902 1265.32 56.2902C1263.37 56.2902 1260.55 55.9648 1256.86 55.3141L1250.36 54.0126L1250.03 55.6394L1249.71 57.2663C1249.71 76.572 1251.55 107.374 1255.24 149.673C1258.7 189.369 1260.44 220.172 1260.44 242.08C1260.44 244.683 1259.25 246.961 1256.86 248.913C1254.69 250.866 1252.2 251.842 1249.38 251.842L1243.53 247.612Z" fill="white"/>
<path d="M1314.38 257.373C1310.48 256.722 1307.12 255.312 1304.3 253.143C1301.7 250.974 1300.18 248.154 1299.75 244.683L1303.33 239.152C1304.63 239.152 1306.69 239.586 1309.51 240.454C1312.76 241.104 1315.25 241.43 1316.99 241.43C1320.89 241.43 1324.36 239.694 1327.39 236.224C1330.65 232.753 1333.03 228.198 1334.55 222.558C1337.37 212.146 1338.78 202.818 1338.78 194.575C1338.78 180.259 1334.22 165.183 1325.12 149.348L1321.54 143.166C1317.42 136.008 1313.95 129.608 1311.13 123.969C1308.31 118.329 1305.93 112.255 1303.98 105.747C1301.37 97.2877 1300.07 88.8279 1300.07 80.3681C1300.07 70.8237 1302.24 60.8455 1306.58 50.4334C1308.75 45.4443 1311.78 41.4313 1315.69 38.3945C1319.8 35.1407 1324.36 33.5138 1329.35 33.5138C1333.25 33.5138 1336.83 34.8153 1340.08 37.4183C1343.55 39.8044 1345.28 42.7328 1345.28 46.2035C1345.28 48.1558 1344.52 49.6742 1343.01 50.7588C1341.49 51.8434 1339.64 52.3857 1337.48 52.3857C1335.09 52.3857 1332.81 51.7349 1330.65 50.4334C1325.88 50.6503 1322.08 54.8802 1319.26 63.1231C1316.88 70.7152 1315.69 77.0059 1315.69 81.995C1315.69 88.2856 1316.66 94.6847 1318.61 101.192C1320.56 107.483 1323.06 113.231 1326.09 118.437L1333.25 131.452L1344.63 152.927C1347.67 159.001 1350.05 166.051 1351.79 174.077C1353.74 182.103 1354.71 190.237 1354.71 198.48C1354.71 211.712 1351.68 224.293 1345.61 236.224C1342.57 242.297 1338.24 247.178 1332.6 250.866C1327.18 254.553 1321.11 256.397 1314.38 256.397V257.373Z" fill="white"/>
<path d="M1410.35 217.352C1406.02 217.352 1403.42 214.966 1402.55 210.193C1402.55 196.961 1403.52 182.536 1405.48 166.918C1407.64 151.3 1410.68 132.32 1414.58 109.977L1416.21 100.541C1419.24 81.6696 1420.76 65.8346 1420.76 53.0364C1420.76 32.8631 1417.51 22.7764 1411 22.7764C1406.88 22.7764 1404.83 27.657 1404.83 37.4183C1404.83 39.8044 1405.58 45.6612 1407.1 54.9887C1407.1 55.2056 1406.56 55.8563 1405.48 56.9409C1401.79 60.1947 1399.08 61.8216 1397.34 61.8216C1391.27 61.8216 1388.24 54.5549 1388.24 40.0213V36.7676C1388.24 31.1277 1388.78 26.3555 1389.86 22.451C1391.16 18.3296 1393.44 14.7504 1396.69 11.7136C1400.38 8.6767 1404.93 7.15828 1410.35 7.15828C1415.12 7.15828 1419.24 8.02595 1422.71 9.7613C1426.18 11.4966 1429 13.8827 1431.17 16.9196C1434.64 22.1256 1436.81 29.8262 1437.67 40.0213C1437.89 42.4075 1438 46.6374 1438 52.7111C1438 71.7998 1434.75 92.624 1428.24 115.183C1425.42 124.511 1423.04 136.333 1421.09 150.65C1419.14 164.749 1418.16 179.391 1418.16 194.575C1418.16 206.506 1418.27 213.773 1418.49 216.376C1414.58 216.376 1412.41 216.593 1411.98 217.026C1411.55 217.243 1411 217.352 1410.35 217.352ZM1410.35 254.119C1407.1 254.119 1404.5 252.818 1402.55 250.215C1400.16 248.046 1398.97 245.334 1398.97 242.08C1398.97 239.044 1400.27 236.224 1402.87 233.621C1405.48 230.801 1408.4 229.391 1411.66 229.391C1414.26 229.391 1416.86 230.801 1419.46 233.621C1422.06 236.441 1423.36 239.152 1423.36 241.755C1423.36 249.998 1419.03 254.119 1410.35 254.119Z" fill="white"/>
</g>
</svg>
